<svg xmlns="http://www.w3.org/2000/svg" width="15.68" height="11.2"><path d="M0 .644A.627.627 0 01.182.18.625.625 0 01.644 0h3.29a.642.642 0 01.4.133.622.622 0 01.231.357l.336 1.372h9.436l.1-.294a.579.579 0 01.6-.448.431.431 0 01.182.028.6.6 0 01.336.224.612.612 0 01.126.378.782.782 0 01-.028.182l-1.652 5.5a.6.6 0 01-.224.336.615.615 0 01-.378.126H5.572a.622.622 0 01-.4-.14.654.654 0 01-.231-.35L3.43 1.274H.644a.633.633 0 01-.455-.182A.6.6 0 010 .644zm5.205 2.492l.868 3.472h6.846l.028-.126 1.008-3.346h-8.75zm.588 6.776a1.229 1.229 0 01.385-.91 1.264 1.264 0 01.917-.378 1.288 1.288 0 010 2.576 1.264 1.264 0 01-.917-.378 1.23 1.23 0 01-.382-.91zm.912-5.684H9.03v1.288H6.986zm3.43 1.288l.014-1.288h2.268l-.336 1.288zm.518 4.4a1.229 1.229 0 01.385-.91 1.263 1.263 0 01.917-.378 1.288 1.288 0 010 2.576 1.263 1.263 0 01-.917-.378 1.229 1.229 0 01-.384-.914z"/></svg>