<svg xmlns="http://www.w3.org/2000/svg" width="24.581" height="21.806"><g fill="none" stroke="#000" stroke-linecap="round" stroke-linejoin="round"><path d="M7.99 4.384H1.609a1.11 1.11 0 00-1.11 1.11v9.71a1.11 1.11 0 001.11 1.11h.555a1.11 1.11 0 011.11 1.11v3.884l4.668-4.668a1.109 1.109 0 01.785-.325h4.534a1.11 1.11 0 001.11-1.11v-1.387m0-2.776V5.494a1.11 1.11 0 00-1.11-1.11h-2.219"/><path d="M16.962 12.706h-6.476A1.11 1.11 0 019.377 11.6V1.61A1.11 1.11 0 0110.487.5h12.484a1.11 1.11 0 011.11 1.11v9.99a1.11 1.11 0 01-1.11 1.11h0a1.11 1.11 0 00-1.11 1.11v3.329l-4.114-4.114a1.11 1.11 0 00-.785-.329z"/></g></svg>