<svg xmlns="http://www.w3.org/2000/svg" width="16.523" height="15.333"><path data-name="Path 1" d="M14.606 9.145a.405.405 0 00-.394.416v3.693a1.218 1.218 0 01-1.182 1.248H1.971a1.218 1.218 0 01-1.183-1.248V2.414a1.218 1.218 0 011.183-1.252h3.5a.417.417 0 000-.832h-3.5A2.03 2.03 0 000 2.414v10.84a2.03 2.03 0 001.971 2.08h11.058A2.03 2.03 0 0015 13.254V9.562a.405.405 0 00-.394-.416zm0 0"/><path data-name="Path 2" d="M15.546.481a1.867 1.867 0 00-2.5 0l-7.009 6.5a.359.359 0 00-.1.16l-.922 3.087a.347.347 0 00.1.355.414.414 0 00.383.094l3.327-.855a.4.4 0 00.173-.094l3.689-3.423 3.32-3.08a1.559 1.559 0 000-2.32zm-8.653 6.74l5.736-5.322 1.85 1.716L8.743 8.94zm-.37.688L8.001 9.28l-2.044.526zm8.928-5.2l-.417.387-1.85-1.717.417-.387a1.037 1.037 0 011.389 0l.461.428a.867.867 0 010 1.293zm0 0"/></svg>