<svg xmlns="http://www.w3.org/2000/svg" width="14" height="14"><path d="M8.75 7A1.75 1.75 0 117 5.25 1.75 1.75 0 018.75 7z" fill="none" stroke="#000" stroke-linecap="round" stroke-linejoin="round" stroke-width="1.167"/><path d="M11.317 8.75a.962.962 0 00.193 1.062l.035.035A1.167 1.167 0 119.893 11.5l-.035-.035a.97.97 0 00-1.645.688v.1a1.167 1.167 0 11-2.333 0V12.2a.963.963 0 00-.63-.881.962.962 0 00-1.062.193l-.035.035A1.167 1.167 0 112.5 9.893l.035-.035a.97.97 0 00-.688-1.645h-.1a1.167 1.167 0 110-2.333H1.8a.963.963 0 00.881-.63.963.963 0 00-.193-1.062l-.035-.035A1.167 1.167 0 114.107 2.5l.035.035A.962.962 0 005.2 2.73h.05a.962.962 0 00.583-.881v-.1a1.167 1.167 0 112.333 0V1.8a.97.97 0 001.645.688l.035-.035A1.167 1.167 0 1111.5 4.107l-.035.035A.963.963 0 0011.27 5.2v.05a.962.962 0 00.881.583h.1a1.167 1.167 0 110 2.333H12.2a.963.963 0 00-.883.584z" fill="none" stroke="#000" stroke-linecap="round" stroke-linejoin="round" stroke-width="1.167"/></svg>