<svg xmlns="http://www.w3.org/2000/svg" width="15" height="15"><g fill="#666"><path d="M9.017 15H5.982l-.4-1.366a6.4 6.4 0 01-1.068-.444l-1.248.686-2.142-2.146.686-1.248a6.409 6.409 0 01-.443-1.068L0 9.017V5.982l1.366-.4a6.4 6.4 0 01.444-1.068L1.124 3.27 3.27 1.124l1.248.686a6.409 6.409 0 011.068-.443L5.982 0h3.035l.4 1.366a6.4 6.4 0 011.068.444l1.248-.686 2.143 2.146-.686 1.248a6.409 6.409 0 01.443 1.068l1.366.4v3.031l-1.366.4a6.4 6.4 0 01-.444 1.068l.686 1.248-2.145 2.143-1.248-.686a6.409 6.409 0 01-1.068.443zm-2.375-.879h1.716l.349-1.2.238-.064a5.515 5.515 0 001.318-.547l.214-.124 1.1.6 1.213-1.213-.6-1.1.124-.214a5.513 5.513 0 00.547-1.318l.064-.238 1.2-.349V6.642l-1.2-.349-.064-.238a5.515 5.515 0 00-.547-1.318l-.124-.214.6-1.1-1.215-1.211-1.1.6-.214-.124a5.515 5.515 0 00-1.318-.547l-.236-.061L8.358.879H6.642l-.349 1.2-.238.064a5.515 5.515 0 00-1.318.547l-.214.124-1.1-.6-1.211 1.211.6 1.1-.124.214a5.513 5.513 0 00-.547 1.318l-.064.238-1.2.349v1.714l1.2.349.064.238a5.515 5.515 0 00.547 1.318l.124.214-.6 1.1 1.213 1.213 1.1-.6.214.124a5.513 5.513 0 001.318.547l.238.064zm0 0"/><path d="M7.499 9.83a2.33 2.33 0 112.33-2.33 2.333 2.333 0 01-2.33 2.33zm0-3.664A1.334 1.334 0 108.833 7.5a1.336 1.336 0 00-1.334-1.334zm0 0"/><path d="M7.5 10.823a3.322 3.322 0 113.322-3.322A3.326 3.326 0 017.5 10.823zm0-5.879a2.557 2.557 0 102.557 2.557A2.56 2.56 0 007.5 4.944zm0 0"/></g></svg>