<svg xmlns="http://www.w3.org/2000/svg" width="20" height="20"><path d="M19.8 8.041H19V8h-9v4h5.652a6.006 6.006 0 11-1.672-6.48l2.828-2.828a9.977 9.977 0 103 5.35z" fill="#ffc107"/><path d="M1.148 5.346l3.287 2.41a5.987 5.987 0 019.546-2.236l2.828-2.828A9.98 9.98 0 001.148 5.346z" fill="#ff3d00"/><path d="M10.002 20a9.958 9.958 0 006.705-2.6l-3.1-2.619a5.984 5.984 0 01-9.25-2.758l-3.255 2.516a9.992 9.992 0 008.9 5.461z" fill="#4caf50"/><path d="M19.8 8.041H19V8h-9v4h5.652a6.027 6.027 0 01-2.045 2.785l3.1 2.619A9.681 9.681 0 0020 10a9.977 9.977 0 00-.2-1.959z" fill="#1976d2"/></svg>