<svg xmlns="http://www.w3.org/2000/svg" width="14" height="14"><path d="M6.334.315A.315.315 0 006.019 0H.315A.315.315 0 000 .315v5.7a.315.315 0 00.315.315h5.7a.315.315 0 00.315-.315zM5.7 5.7H.63V.63H5.7zM14 .315A.315.315 0 0013.685 0h-5.7a.315.315 0 00-.315.315v5.7a.315.315 0 00.315.315h5.7A.315.315 0 0014 6.015zm-.63 5.388H8.296V.63h5.073zM6.334 7.981a.315.315 0 00-.315-.315H.315A.315.315 0 000 7.981v5.7a.315.315 0 00.315.315h5.7a.315.315 0 00.315-.315zm-.63 5.357H.63V8.296H5.7zM14 7.981a.315.315 0 00-.315-.315h-5.7a.315.315 0 00-.315.315v5.7a.315.315 0 00.315.315h5.7a.315.315 0 00.315-.315zm-.63 5.357H8.296V8.296h5.073zm0 0"/></svg>