<svg xmlns="http://www.w3.org/2000/svg" width="13.322" height="14.274"><path d="M12.906 6.723H5.318a.416.416 0 100 .831h7.588a.416.416 0 000-.831zM1.932 5.207a1.932 1.932 0 101.932 1.932 1.931 1.931 0 00-1.932-1.932zm0 3.033a1.1 1.1 0 111.1-1.1 1.1 1.1 0 01-1.1 1.1zm10.974-6.711H5.318a.416.416 0 000 .831h7.588a.416.416 0 000-.831zM1.932 0a1.932 1.932 0 101.932 1.932A1.931 1.931 0 001.932 0zm0 3.038a1.1 1.1 0 111.1-1.1 1.1 1.1 0 01-1.1 1.1zm10.974 8.88H5.318a.416.416 0 000 .831h7.588a.416.416 0 000-.831zM1.932 10.409a1.932 1.932 0 101.932 1.932 1.931 1.931 0 00-1.932-1.932zm0 3.038a1.1 1.1 0 111.1-1.1 1.1 1.1 0 01-1.1 1.1z"/></svg>