<svg xmlns="http://www.w3.org/2000/svg" width="17.5" height="12.25"><path d="M16.985.614A8.1 8.1 0 0013.8 0C10.432 0 7.064 1.7 3.7 1.7a8.3 8.3 0 01-2.535-.375.935.935 0 00-.283-.04.87.87 0 00-.882.87v8.675a.87.87 0 00.515.806 8.093 8.093 0 003.183.614c3.368 0 6.736-1.7 10.1-1.7a8.3 8.3 0 012.533.375.935.935 0 00.283.044.87.87 0 00.882-.87V1.42a.871.871 0 00-.515-.806zM1.313 2.74a9.516 9.516 0 001.715.244 1.752 1.752 0 01-1.715 1.41V2.74zm0 7.793V9.225a1.749 1.749 0 011.742 1.679 6.606 6.606 0 01-1.742-.372zM8.75 8.75a2.436 2.436 0 01-2.187-2.625A2.436 2.436 0 018.75 3.5a2.436 2.436 0 012.188 2.625A2.436 2.436 0 018.75 8.75zm7.438.76a9.4 9.4 0 00-1.485-.231 1.746 1.746 0 011.485-1.347zm0-6.456a1.746 1.746 0 01-1.526-1.683 6.573 6.573 0 011.526.346z"/></svg>