<svg xmlns="http://www.w3.org/2000/svg" width="8.741" height="10.94"><path d="M5.286 9.491a.354.354 0 00-.347.279.685.685 0 01-.137.3.517.517 0 01-.44.161.525.525 0 01-.44-.161.685.685 0 01-.137-.3.354.354 0 00-.347-.279.357.357 0 00-.347.435 1.222 1.222 0 001.274 1.014 1.219 1.219 0 001.271-1.014.358.358 0 00-.347-.435zm3.345-1.39c-.421-.555-1.25-.88-1.25-3.366 0-2.551-1.127-3.577-2.177-3.823-.1-.025-.17-.057-.17-.161v-.08a.671.671 0 00-.656-.673h-.013a.671.671 0 00-.656.673v.08c0 .1-.071.137-.17.161-1.053.249-2.177 1.271-2.177 3.823 0 2.486-.829 2.808-1.25 3.366a.543.543 0 00.435.87h7.659a.543.543 0 00.425-.87zm-1.066.159H1.188a.12.12 0 01-.09-.2 3.313 3.313 0 00.574-.913 6.2 6.2 0 00.393-2.412 4.193 4.193 0 01.571-2.373 1.754 1.754 0 011.058-.755.958.958 0 00.509-.287.216.216 0 01.325-.005.991.991 0 00.514.293 1.754 1.754 0 011.058.755 4.193 4.193 0 01.571 2.373 6.2 6.2 0 00.394 2.411 3.35 3.35 0 00.588.927.113.113 0 01-.088.186z"/></svg>