<svg xmlns="http://www.w3.org/2000/svg" width="15.429" height="18"><path d="M14.988 2.915l-7-2.861a.725.725 0 00-.548 0l-7 2.861a.7.7 0 00-.44.649v3.478a11.776 11.776 0 007.444 10.906.725.725 0 00.54 0 11.776 11.776 0 007.445-10.906V3.564a.7.7 0 00-.441-.649zM14 7.042a10.366 10.366 0 01-6.286 9.491 10.367 10.367 0 01-6.286-9.491V4.034l6.286-2.569L14 4.034zm-7.075 2.37l3.07-3.022a.722.722 0 011.01 0 .7.7 0 010 .994L7.43 10.9a.722.722 0 01-1.01 0l-2-1.965a.7.7 0 010-.994.722.722 0 011.01 0z" fill="#00c569"/></svg>