<svg xmlns="http://www.w3.org/2000/svg" width="15.453" height="13.913"><path d="M13.807 1.758A3.886 3.886 0 0010.916.5a3.636 3.636 0 00-2.271.784 4.646 4.646 0 00-.918.959 4.643 4.643 0 00-.918-.959A3.635 3.635 0 004.539.5a3.886 3.886 0 00-2.891 1.258A4.517 4.517 0 00.501 4.843a5.379 5.379 0 001.434 3.521 30.565 30.565 0 003.588 3.368c.5.424 1.061.9 1.646 1.416a.848.848 0 001.117 0c.585-.512 1.149-.992 1.646-1.416a30.548 30.548 0 003.588-3.368 5.379 5.379 0 001.433-3.521 4.517 4.517 0 00-1.146-3.085zm0 0" fill="none" stroke="#000" stroke-linecap="square"/></svg>