<svg xmlns="http://www.w3.org/2000/svg" width="28.971" height="24.972"><path d="M.761 10.451s.706-.462 2.172.2a26.4 26.4 0 014.834 2.824c.724.688 3.874 3.15 4.852 4.236s2.5 2.788 3.657 3.005a11.487 11.487 0 004.309-.072c1.122-.326 3.44-.724 4.417-.905s3.367-.8 3.512-.217a9.4 9.4 0 01.036 2.462c-.072.471-.471.8-1.34.941s-7.64 2.209-12.057 1.195-5.54-6.264-6.626-7.169-1.847-2.426-2.679-1.955-.4 4.2-.4 4.2l-.471 4.924-3.983-.109z" fill="#ee3625"/><path d="M12.494 17.658a.462.462 0 01-.345-.769l4.182-4.7-.424-3.82-1.86 1.485c0 .839-.26 3.472-3.45 5.613a.462.462 0 11-.515-.768c3.307-2.219 3.037-4.981 3.034-5.008a.463.463 0 01.171-.413l2.7-2.159a.462.462 0 01.748.31l.54 4.858a.461.461 0 01-.114.358l-4.318 4.858a.462.462 0 01-.349.155zM6.26 12.77a.461.461 0 01-.391-.216 20.374 20.374 0 01-2.908-8.255c-.958 1.236-2.509 3.657-1.9 5.75a.462.462 0 11-.887.259c-1.008-3.456 2.654-7.305 2.81-7.467a.462.462 0 01.794.29 19.426 19.426 0 002.872 8.93.462.462 0 01-.391.709zm11.389 8.412a.462.462 0 01-.365-.745l3.482-4.483a.463.463 0 01.365-.179h5.067a.462.462 0 01.462.462v3.243a.462.462 0 01-.924 0v-2.783h-4.379l-3.343 4.3a.46.46 0 01-.365.185z"/><path d="M13.574 10.101a.463.463 0 01-.423-.275c-.037-.081-.913-1.942-3.969-2.43-3.511-.562-6.118-3.81-6.227-3.948a.462.462 0 01-.034-.525L4.54.223a.462.462 0 01.637-.157 64.75 64.75 0 007.5 3.748c2.292.972 3.638 1.965 4 2.953a1.173 1.173 0 01.01.918.462.462 0 11-.827-.413c-.009 0 .106-1.058-3.545-2.607a68.269 68.269 0 01-7.216-3.574L3.883 3.114c.656.738 2.814 2.949 5.443 3.369 3.582.573 4.626 2.872 4.668 2.97a.462.462 0 01-.238.609.457.457 0 01-.182.039zm4.399 14.871c-2.383 0-4.535-.452-5.659-1.8l-5.273-7.44a.626.626 0 00-.492-.264.582.582 0 00-.609.58l-.541 8.077a.462.462 0 01-.461.431H1.156a.462.462 0 01-.462-.444L.151 10.137a.462.462 0 01.548-.472c.268.05 6.631 1.324 13.184 8.623a6.437 6.437 0 003.425 2.218l11.133-1.609a.462.462 0 01.529.457v.518a.428.428 0 010 .061v2.716a.462.462 0 01-.321.44 41.429 41.429 0 01-10.676 1.883zM6.548 14.545a1.546 1.546 0 011.244.651l5.253 7.414c2.356 2.819 11.33.825 15-.3v-2.244a.456.456 0 01-.015-.174l-2.064.3-8.593 1.24a.433.433 0 01-.116 0 7.073 7.073 0 01-4.061-2.527c-5.22-5.814-10.4-7.7-12.1-8.186l.5 12.912h2.9l.52-7.613a1.5 1.5 0 011.532-1.473z"/></svg>