<svg xmlns="http://www.w3.org/2000/svg" width="29.688" height="27.199"><path d="M5.238 11.481l2.59-.116 16.39.077.657 5.373s1.005 3.44-1.546 4.02a22.576 22.576 0 01-6.61-.039l-.155-2.4-1.508-.116h-1.932l-.193 2.551-4.02.077-3.015-.193-1.044-1.082-.309-1.314z" fill="#ee3625"/><path d="M9.459 15.762a.435.435 0 00.435-.435v-.975a.435.435 0 00-.87 0v.975a.435.435 0 00.435.435zm10.77 0a.435.435 0 00.435-.435v-.975a.435.435 0 00-.87 0v.975a.435.435 0 00.435.435zm-5.385.521a2.192 2.192 0 001.657-.737.435.435 0 10-.655-.572 1.361 1.361 0 01-2 0 .435.435 0 10-.655.572 2.193 2.193 0 001.653.737zm.626 4.637c0-.612-.28-1.109-.626-1.109s-.626.5-.626 1.109.28 1.109.626 1.109.626-.496.626-1.109z"/><path d="M29.008 19.745a.435.435 0 00-.359.5 12.826 12.826 0 01.169 2.064c0 2.668-1.509 4.021-4.484 4.021H5.354C2.378 26.33.87 24.977.87 22.309a14.576 14.576 0 012.377-7.693 17.592 17.592 0 011.523-2.052l-.639 5.443a3 3 0 002.946 3.348h5.5v1.5a1.222 1.222 0 001.2 1.2h2.128a1.216 1.216 0 001.2-1.2v-1.5h5.5a3.015 3.015 0 002.946-3.343l-.638-5.445a16.8 16.8 0 013.342 5.992.435.435 0 10.834-.248 17.534 17.534 0 00-4.325-7.185v-1.2A9.936 9.936 0 0014.844 0a9.815 9.815 0 00-6.151 2.141.435.435 0 10.54.682A8.953 8.953 0 0114.844.87 9.066 9.066 0 0123.9 9.925v.954h-1.724v-.954a7.332 7.332 0 00-14.664 0v.954H5.788v-.954A9.042 9.042 0 018.03 3.968a.435.435 0 10-.654-.573 9.913 9.913 0 00-2.457 6.53v1.2a17.265 17.265 0 00-2.391 3A15.215 15.215 0 000 22.309C0 25.463 1.9 27.2 5.354 27.2h18.98c3.452 0 5.354-1.737 5.354-4.891a13.712 13.712 0 00-.181-2.2.435.435 0 00-.499-.364zm-12.766 3.107a.334.334 0 01-.334.334H13.78a.334.334 0 01-.333-.334v-3.864a.339.339 0 01.333-.334h2.128a.337.337 0 01.334.334zM8.382 9.925a6.462 6.462 0 1112.924 0v.954H8.382zm-3.387 8.188l.746-6.364h18.206l.747 6.369a2.123 2.123 0 01-2.083 2.367h-5.5v-1.5a1.223 1.223 0 00-1.2-1.2H13.78a1.2 1.2 0 00-1.2 1.2v1.5h-5.5a2.121 2.121 0 01-2.085-2.372z"/></svg>