<svg xmlns="http://www.w3.org/2000/svg" width="30.2" height="31.19"><path d="M20.928 2.052s4.142-2.883 6.782-.366a5.371 5.371 0 011.584 5.483s-1.828 2.274-2.112 2.477-2.355-3.939-2.8-4.427-3.454-3.167-3.454-3.167zM10.693 26.703a10.14 10.14 0 01-1.5-.731c-.041-.122-1.828-1.665-1.828-1.665l-.081-1.543.528-1.1.893-1.34 1.949-.325.853.528.772 1.056s.487 1.137.487 1.259.041 1.178.041 1.34-.081.934-.081.934l-1.381.893z" fill="#ee3625"/><path d="M14.882 17.904a.609.609 0 00-.812.288l-.1.212a.61.61 0 101.1.524l.1-.212a.609.609 0 00-.288-.812zm-6.825-3.533a.609.609 0 00-.861 0 1.3 1.3 0 01-1.831 0 .609.609 0 00-.861.861 2.516 2.516 0 003.554 0 .609.609 0 00-.001-.861z"/><path d="M28.586 1.618a5.527 5.527 0 00-7.786-.02 14.657 14.657 0 00-2.14-.856A15.715 15.715 0 0013.996 0c-3.3 0-6.185 1.388-7.522 3.619a5.619 5.619 0 00-.441.913 11.278 11.278 0 00-3.471 7.7A5.843 5.843 0 01.433 17.07a1.12 1.12 0 00.138 1.861c.3.168.637.33.962.486.288.138.7.335.9.462v1.085a1.14 1.14 0 01-.084.431l-.151.372a1.571 1.571 0 00.2 1.53v.134a1.327 1.327 0 00.464 1.009v.715a2.782 2.782 0 002.779 2.779h1.8a.609.609 0 100-1.218h-1.8a1.563 1.563 0 01-1.561-1.561V24.1a.609.609 0 00-.37-.56l-.026-.011a.111.111 0 01-.067-.1v-.344a.609.609 0 00-.13-.377l-.107-.137a.351.351 0 01-.049-.348l.151-.372a2.353 2.353 0 00.174-.889v-1.3c0-.587-.6-.874-1.588-1.349-.26-.125-.527-.253-.764-.38a7.067 7.067 0 002.476-5.7 9.419 9.419 0 011.9-5.422 7.734 7.734 0 00.963 3.282c1.563 2.923 4.285 4.149 6.472 5.133 2.081.937 3.259 1.526 3.268 2.752a2.642 2.642 0 01-.615 1.968 1.7 1.7 0 01-1.119.457.6.6 0 00-.52.237.608.608 0 00-.086.571 8.816 8.816 0 001.437 2.466 5.862 5.862 0 004.53 2.293l1.636 4.8a.61.61 0 101.153-.393L21.19 25.65a12.545 12.545 0 006.19-7.334 14.77 14.77 0 00.165-8.075 5.522 5.522 0 001.039-8.623zm-2.364 16.327a11.4 11.4 0 01-5.938 6.8 4.592 4.592 0 01-3.842-1.821 7.763 7.763 0 01-.947-1.444 2.794 2.794 0 001.106-.646 3.765 3.765 0 001-2.868c-.016-2.066-1.944-2.934-3.986-3.853-2.124-.956-4.53-2.039-5.9-4.6a5.5 5.5 0 01-.6-4.424l.005-.015a4.445 4.445 0 01.39-.834c1.119-1.867 3.6-3.027 6.485-3.027h.018a14.587 14.587 0 014.275.685A11.2 11.2 0 0125.105 7.3a13.924 13.924 0 011.117 10.645zm.958-8.921a15.274 15.274 0 00-1-2.304 11.971 11.971 0 00-4.255-4.5 4.3 4.3 0 115.262 6.8z"/><path d="M15.623 28.528l-1.908-3.3-.065-2.257a3.7 3.7 0 00-3.4-3.584 3.378 3.378 0 00-3.311 1.912l-.03.064a3.715 3.715 0 001.324 4.686l1.9 1.238 2.075 3.594a.61.61 0 001.055-.609l-1.843-3.193.734-.424.734-.424 1.68 2.911a.61.61 0 001.055-.609zm-5.017-2.391l-1.708-1.113a2.493 2.493 0 01-.888-3.144l.03-.063a2.156 2.156 0 011.94-1.226q.085 0 .171.007a2.481 2.481 0 012.281 2.4l.059 2.047zm5.929 4.013a.609.609 0 10.178.431.613.613 0 00-.178-.431zM11.544 3.567a.609.609 0 00-.8-.321 3.544 3.544 0 00-1.819 5.258.609.609 0 001.074-.574 2.574 2.574 0 01-.287-2.1 2.609 2.609 0 011.511-1.463.609.609 0 00.321-.8zm1.485-.767h-.034a.609.609 0 000 1.218h.031a.609.609 0 100-1.218z"/></svg>