<svg xmlns="http://www.w3.org/2000/svg" width="36.537" height="27.353"><path d="M7.887 17.518l-3.328 2.556-3.52 2.655.675.579a8.385 8.385 0 012.7-.386c1.447.048 3.955.193 5.016.916s2.411.82 2.845 1.206a6.45 6.45 0 002.99 1.254 13.8 13.8 0 004.726.145c1.64-.386 2.315.1 4.34-1.206s3.472-2.218 4-3.183a9.909 9.909 0 00.675-1.4s-2.556-.482-5.064-.868-7.62-1.833-8.488-1.833-3.902-.724-4.048-.724-3.519.289-3.519.289z" fill="#ee3625"/><path d="M26.153 2.355c.212-2.829-4.517-3.285-4.857-.4-2.957.389-7.954 1.621-10.662 5.5-2.538 3.643-3.206 8.543-3.34 9.764-3.042 2.2-5.726 3.85-6.94 5.009a1.154 1.154 0 00-.158 1.475 1.135 1.135 0 001.573.334c.146-.1 1.536-.911 5.131-.4 6.466.917 5.058 4.25 11.98 3.643a15.532 15.532 0 0010.558-6.072c1.148.055 2.271.127 3.4.273a3.407 3.407 0 002.277-.267 2.58 2.58 0 001.141-1.761 16.941 16.941 0 00.273-3.57c-.012-6.922-3.916-11.464-10.377-13.528zm-12.089 14.82c.364-3.078 2.107-12.666 9.515-14.153 5.635 3.176 2.9 13.965 2.107 16.679-4.6-.668-9.2-2.071-11.622-2.526zM24.928 1.996a4.949 4.949 0 00-2.35-.152c.334-.917 2.18-.777 2.35.17zM11.66 8.153c1.864-2.684 5.07-3.971 7.705-4.59-4.857 3.5-6.175 10.735-6.5 13.461a20.115 20.115 0 00-4.25-.14 20.921 20.921 0 013.045-8.731zm7.11 17.906c-6.412.607-4.857-2.666-11.7-3.643a10.4 10.4 0 00-5.465.334c1.311-1.1 3.862-2.69 6.527-4.615 5.665-.85 12.247 2.562 19.8 3.036a14.038 14.038 0 01-9.162 4.888zm16.3-6.867c-.249 1.178-.868 1.269-2.07 1.111-2.653-.346-4.1-.237-6.072-.449 1.4-4.857 2.429-12.271-.723-16.2 4.36 1.5 7.65 4.25 8.737 8.816a17.838 17.838 0 01.125 6.722z"/></svg>