<svg xmlns="http://www.w3.org/2000/svg" xmlns:xlink="http://www.w3.org/1999/xlink" version="1.1" x="0px" y="0px" viewBox="0 0 66 82.5" style="enable-background:new 0 0 66 66;" xml:space="preserve"><path d="M45.87,11.56c-2.04-2.04-4.74-3.16-7.63-3.16s-5.59,1.12-7.62,3.16c-4.2,4.2-4.2,11.05,0,15.25  c2.04,2.04,4.74,3.16,7.62,3.16s5.59-1.12,7.63-3.16C50.07,22.6,50.07,15.76,45.87,11.56z M44.81,25.75  c-1.75,1.75-4.08,2.72-6.56,2.72s-4.81-0.97-6.56-2.72c-3.62-3.62-3.62-9.51,0-13.13c1.75-1.75,4.08-2.72,6.56-2.72  s4.81,0.97,6.56,2.72C48.43,16.24,48.43,22.13,44.81,25.75z"/><path d="M63.62,39.11l-8.96-8.96c-0.83-0.83-1.99-1.23-3.15-1.1l-1.26-1.26c4.14-5.77,3.63-13.87-1.55-19.06  c-2.79-2.79-6.5-4.33-10.45-4.33s-7.66,1.54-10.45,4.33c-5.76,5.76-5.76,15.14,0,20.91c2.88,2.88,6.67,4.32,10.45,4.32  c3.02,0,6.04-0.94,8.6-2.77l1.26,1.26c-0.13,1.16,0.26,2.32,1.1,3.15l8.96,8.96c0.73,0.73,1.7,1.13,2.73,1.13  c1.03,0,2-0.4,2.73-1.13C65.12,43.06,65.12,40.61,63.62,39.11z M28.85,28.57c-2.51-2.51-3.89-5.84-3.89-9.39s1.38-6.88,3.89-9.39  S34.7,5.9,38.24,5.9s6.88,1.38,9.39,3.89s3.89,5.84,3.89,9.39s-1.38,6.88-3.89,9.39C42.46,33.75,34.03,33.75,28.85,28.57z   M62.56,43.5c-0.92,0.92-2.41,0.92-3.33,0l-8.96-8.96c-0.57-0.57-0.8-1.39-0.63-2.19c0.06-0.25-0.02-0.51-0.2-0.69l-1.42-1.42  c0.23-0.2,0.46-0.39,0.67-0.61s0.41-0.45,0.61-0.67l1.42,1.42c0.18,0.18,0.44,0.26,0.69,0.2c0.8-0.18,1.61,0.05,2.19,0.63l8.96,8.96  c0.45,0.45,0.69,1.04,0.69,1.67S63.01,43.05,62.56,43.5z"/><path d="M17.56,40.6l6.65-7.91l6.65,7.91c0.14,0.17,0.35,0.27,0.57,0.27h19.11c0.41,0,0.75-0.34,0.75-0.75s-0.34-0.75-0.75-0.75  H31.78l-5.96-7.09h0.71c0.41,0,0.75-0.34,0.75-0.75s-0.34-0.75-0.75-0.75h-2.31h0H9.22c-0.22,0-0.43,0.1-0.57,0.27l-7.22,8.59  c-0.19,0.22-0.23,0.53-0.11,0.8C1.44,40.7,1.71,40.87,2,40.87h14.99C17.21,40.87,17.42,40.77,17.56,40.6z M3.61,39.37l5.96-7.09  H22.6l-5.96,7.09H3.61z"/><path d="M35.58,53.66h-7.84c-0.41,0-0.75,0.34-0.75,0.75s0.34,0.75,0.75,0.75h7.84c0.41,0,0.75-0.34,0.75-0.75  S35.99,53.66,35.58,53.66z"/><path d="M35.58,56.57h-7.84c-0.41,0-0.75,0.34-0.75,0.75s0.34,0.75,0.75,0.75h7.84c0.41,0,0.75-0.34,0.75-0.75  S35.99,56.57,35.58,56.57z"/><path d="M41.77,15.65c-0.29-0.29-0.77-0.29-1.06,0l-2.47,2.47l-2.47-2.47c-0.29-0.29-0.77-0.29-1.06,0s-0.29,0.77,0,1.06l2.47,2.47  l-2.47,2.47c-0.29,0.29-0.29,0.77,0,1.06c0.15,0.15,0.34,0.22,0.53,0.22s0.38-0.07,0.53-0.22l2.47-2.47l2.47,2.47  c0.15,0.15,0.34,0.22,0.53,0.22s0.38-0.07,0.53-0.22c0.29-0.29,0.29-0.77,0-1.06l-2.47-2.47l2.47-2.47  C42.07,16.42,42.07,15.94,41.77,15.65z"/><path d="M50.83,42.37c-0.41,0-0.75,0.34-0.75,0.75V60.1H24.96V36.18c0-0.41-0.34-0.75-0.75-0.75s-0.75,0.34-0.75,0.75V60.1H9.97  V43.12c0-0.41-0.34-0.75-0.75-0.75s-0.75,0.34-0.75,0.75v17.74c0,0.41,0.34,0.75,0.75,0.75h41.6c0.41,0,0.75-0.34,0.75-0.75V43.12  C51.58,42.7,51.24,42.37,50.83,42.37z"/><text x="0" y="81" fill="#000000" font-size="5px" font-weight="bold" font-family="'Helvetica Neue', Helvetica, Arial-Unicode, Arial, Sans-serif">Created by Candy Design</text><text x="0" y="86" fill="#000000" font-size="5px" font-weight="bold" font-family="'Helvetica Neue', Helvetica, Arial-Unicode, Arial, Sans-serif">from the Noun Project</text></svg>